<svg xmlns="http://www.w3.org/2000/svg" xmlns:xlink="http://www.w3.org/1999/xlink" version="1.1"
    x="0px" y="0px" viewBox="0 0 100 100" style="enable-background:new 0 0 100 100;"
    xml:space="preserve" width="25px" fill="white"><g>
        <path d="M60.1,12c-7.7-8.3-19.3-9.3-27.9-2.7c-4.5,3.5-7.4,8-8.3,13.6c-1.2,7.4,1.5,13.5,6.7,18.7   c-0.3,0.1-0.4,0.2-0.6,0.2c-9.1,4.1-15.9,10.6-20,19.7c-1.1,2.5-2.1,5.1-2.4,7.8c-0.8,7.4,4.7,13.1,12.1,13.1c11.7,0,23.5,0,35.2,0   h0c0.6,0,1.1-0.5,1.1-1.1V78c0-0.6-0.5-1.1-1.1-1.1l-0.2,0c-11.9,0-23.8,0-35.7,0c-3.9,0-6.9-3.7-5.9-7.5   c1.8-7.1,5.4-13.1,11.1-17.7c3.3-2.7,7.1-4.6,11.3-5.8c0.5-0.1,1-0.3,1.5-0.1c5,2,10.1,2.1,15.1,0.1c0.4-0.1,1-0.2,1.4-0.1   c5.6,1.5,10.4,4.4,14.3,8.6c1.2,1.3,2.4,2.8,3.5,4.2c0.4,0.5,1,0.6,1.5,0.2l2.7-1.8c0.6-0.4,0.7-1.2,0.3-1.7   c-1.4-1.7-2.7-3.4-4.1-4.9c-3.6-3.9-7.9-6.7-12.9-8.8C68.4,32.3,67.5,19.9,60.1,12z M29.1,26.1c0-8.9,6.7-15.6,15.5-15.5   c9,0,15.6,6.7,15.6,15.6c0,8.9-6.6,15.5-15.6,15.4C35.7,41.6,29.1,35,29.1,26.1z"/>
        <path d="M73.2,75.8l-10.4,0c-2,0-3.2,1.1-3.2,2.8c0,1.7,1.2,2.8,3.3,2.8l10.4,0l0.2,11.9c0.4,1.3,1.8,2,3.1,1.7   c1.3-0.2,2.2-1.4,2.3-2.9l0-10.8l10.7,0c1.7,0,3-1.2,3-2.8c0-1.6-1.3-2.8-3-2.8l-10.7,0l0-10.5c0-0.8-0.4-1.8-0.9-2.4   c-0.7-0.9-1.8-1-2.9-0.6c-1.2,0.5-1.7,1.4-1.7,2.6L73.2,75.8z"/></g>
    </svg>